<?xml version="1.0" encoding="utf-8"?>
<!-- Generator: Adobe Illustrator 22.1.0, SVG Export Plug-In . SVG Version: 6.00 Build 0)  -->
<svg version="1.1" id="Layer_1" xmlns="http://www.w3.org/2000/svg" xmlns:xlink="http://www.w3.org/1999/xlink" x="0px" y="0px"
	 viewBox="0 0 28.3 28.3" style="enable-background:new 0 0 28.3 28.3;" xml:space="preserve">
<style type="text/css">
	.st0{fill:#FFFFFF;}
	.st1{fill:#FF6E00;}
</style>
<path class="st0" d="M28.1,12.3c-0.4-0.7-0.8-1.3-1.4-1.8c-4-3.9-11.5-2.9-16.7,2.4C6.5,16.5,4.9,21.1,5.6,25c0.1-3.3,1.7-7,4.6-10
	c5.2-5.3,12.7-6.3,16.7-2.4c0.5,0.5,1,1.2,1.4,1.8c0-0.1,0-0.3,0-0.4C28.3,13.3,28.2,12.4,28.1,12.3z M7.5,10.1
	c5.6-5.6,14-6.3,18.9-1.5c0.4,0.4,0.8,0.9,1.2,1.4c-0.4-1.5-1.4-3.4-2.5-4.7c-5-3.8-12.7-2.8-17.9,2.4C3.4,11.5,1.9,16.7,3,21.1
	C2.8,17.3,4.4,13.2,7.5,10.1z"/>
<path class="st1" d="M14.1,28.3C6.3,28.3,0,21.9,0,14.1C0,6.3,6.3,0,14.1,0c4.4,0,8.4,2,11,5.2c-5-3.8-12.7-2.8-17.9,2.4
	C3.4,11.5,1.9,16.7,3,21.1c-0.1-3.8,1.4-7.9,4.6-11.1c5.6-5.6,14-6.3,18.9-1.5c0.4,0.4,0.8,0.9,1.2,1.4c0.2,0.8,0.4,1.6,0.5,2.4
	c-0.4-0.7-0.8-1.3-1.4-1.8c-4-3.9-11.5-2.9-16.7,2.4C6.5,16.5,4.9,21.1,5.6,25c0.1-3.3,1.7-7,4.6-10c5.2-5.3,12.7-6.3,16.7-2.4
	c0.5,0.5,1,1.1,1.4,1.8C28.1,22.1,21.8,28.3,14.1,28.3z"/>
</svg>
